<?xml version="1.0" standalone="no"?>
<!DOCTYPE svg PUBLIC "-//W3C//DTD SVG 20010904//EN"
 "http://www.w3.org/TR/2001/REC-SVG-20010904/DTD/svg10.dtd">
<svg version="1.0" xmlns="http://www.w3.org/2000/svg"
 width="360.000000pt" height="360.000000pt" viewBox="0 0 360.000000 360.000000"
 preserveAspectRatio="xMidYMid meet">
<metadata>
Created by potrace 1.14, written by Peter Selinger 2001-2017
</metadata>
<g transform="translate(0.000000,360.000000) scale(0.100000,-0.100000)"
fill="#000000" stroke="none">
<path d="M2310 3552 c0 -7 -20 -9 -57 -6 -38 2 -60 -1 -65 -9 -6 -9 -8 -9 -8
1 0 9 -7 9 -30 -3 -16 -9 -30 -20 -30 -25 0 -6 -6 -9 -12 -7 -7 1 -12 -4 -10
-10 1 -7 -4 -13 -10 -13 -7 0 -25 -7 -40 -14 -16 -8 -28 -11 -28 -5 0 5 -9 9
-20 9 -18 0 -25 11 -21 33 1 5 -3 6 -9 2 -6 -4 -17 -1 -25 5 -8 7 -15 9 -15 5
0 -4 -6 -3 -12 2 -19 14 -60 14 -77 0 -11 -9 -13 -9 -8 0 9 15 -32 14 -52 -1
-11 -8 -13 -8 -8 1 5 8 1 11 -12 10 -11 0 -17 -5 -15 -9 3 -5 -8 -7 -25 -6
-17 1 -31 6 -31 10 0 4 -5 8 -11 8 -5 0 -7 -5 -4 -11 4 -6 -2 -5 -13 2 -17 11
-24 10 -38 -2 -10 -8 -15 -9 -11 -2 5 8 0 9 -22 0 -17 -6 -28 -14 -25 -19 3
-4 -2 -5 -10 -2 -10 4 -16 1 -16 -7 0 -11 -3 -11 -10 1 -6 9 -10 11 -10 3 0
-7 -7 -10 -15 -7 -8 4 -15 2 -15 -4 0 -5 -11 -8 -26 -6 -20 2 -23 0 -14 -11
10 -11 8 -13 -9 -10 -13 2 -25 -3 -31 -16 -6 -11 -16 -16 -22 -13 -7 5 -9 2
-5 -9 4 -11 2 -14 -9 -10 -7 3 -14 0 -14 -7 0 -6 -4 -8 -10 -5 -5 3 -10 2 -10
-4 0 -6 -7 -8 -15 -5 -8 4 -17 -1 -21 -10 -3 -9 -10 -14 -14 -11 -5 3 -11 1
-15 -5 -4 -6 -11 -7 -17 -4 -6 4 -8 2 -5 -3 4 -6 0 -13 -8 -17 -8 -3 -15 -13
-15 -21 0 -9 -4 -13 -10 -10 -14 9 -12 -19 3 -34 10 -10 9 -11 -6 -5 -14 5
-16 2 -11 -12 4 -11 9 -23 12 -28 9 -16 8 -55 0 -50 -4 3 -8 1 -8 -4 0 -6 -11
-13 -25 -16 -15 -4 -23 -11 -19 -17 4 -8 1 -8 -14 0 -15 8 -24 6 -42 -9 -12
-11 -27 -17 -31 -14 -5 3 -9 1 -9 -5 0 -5 6 -12 13 -14 9 -4 9 -6 0 -6 -6 -1
-14 3 -17 8 -8 13 -77 -50 -69 -63 3 -6 3 -8 -2 -4 -10 10 -88 -70 -80 -82 3
-5 0 -7 -7 -5 -8 3 -24 -6 -36 -20 -12 -14 -19 -25 -16 -25 3 0 -2 -7 -10 -15
-10 -11 -36 -16 -75 -17 -33 -1 -58 -5 -55 -10 3 -4 -2 -5 -11 -2 -17 7 -59
-29 -48 -40 4 -3 0 -6 -8 -6 -11 0 -11 -2 1 -10 8 -5 10 -10 3 -10 -6 0 -9 -9
-6 -20 3 -11 9 -20 13 -20 11 0 33 -57 26 -69 -4 -5 -1 -13 4 -16 8 -5 6 -13
-5 -25 -13 -15 -14 -20 -3 -27 16 -10 20 -43 4 -40 -6 1 -10 -4 -8 -10 1 -7
-2 -13 -6 -13 -4 0 -8 -20 -7 -44 0 -24 -3 -42 -6 -40 -4 2 -10 -3 -13 -12 -9
-23 -8 -26 7 -18 8 5 8 2 -2 -9 -7 -9 -10 -17 -5 -17 5 0 1 -7 -10 -15 -10 -8
-18 -25 -18 -39 0 -14 -3 -24 -7 -22 -3 3 -5 -13 -3 -35 3 -28 0 -39 -9 -39
-11 0 -11 -3 1 -10 13 -8 13 -10 -2 -10 -11 0 -15 -5 -12 -14 6 -16 -9 -22
-51 -21 -16 0 -32 -3 -35 -6 -3 -4 -21 -16 -40 -28 -19 -11 -28 -21 -20 -21
13 -1 13 -2 0 -13 -9 -7 -15 -18 -14 -24 1 -7 2 -25 3 -39 0 -14 4 -23 9 -20
11 7 9 -108 -3 -116 -6 -5 -5 -8 4 -8 7 0 11 -6 7 -15 -3 -8 2 -18 10 -23 9
-5 15 -12 15 -15 -3 -20 0 -28 7 -23 5 3 9 -1 9 -9 0 -8 -5 -11 -11 -8 -6 4
-5 -1 3 -10 8 -10 11 -20 7 -24 -3 -3 2 -15 11 -26 11 -13 12 -17 4 -12 -11 6
-13 4 -6 -11 4 -10 8 -26 9 -34 1 -9 6 -22 11 -30 12 -19 13 -70 2 -70 -4 0
-5 -6 0 -12 11 -18 11 -78 0 -78 -5 0 -4 -7 3 -15 7 -8 9 -15 4 -15 -5 0 -2
-5 6 -10 12 -8 12 -10 1 -10 -11 0 -11 -4 1 -22 7 -13 13 -41 12 -63 -1 -22 4
-46 10 -54 8 -11 8 -13 -1 -8 -7 5 -9 0 -6 -13 3 -11 8 -18 12 -16 4 3 7 -6 7
-20 0 -13 -5 -24 -10 -24 -7 0 -6 -3 1 -8 13 -8 13 -43 0 -53 -16 -12 -15
-152 1 -177 13 -20 13 -25 1 -33 -9 -6 -10 -9 -2 -9 9 0 10 -7 3 -25 -8 -21
-7 -25 8 -25 10 0 13 -3 7 -8 -14 -10 -11 -105 3 -110 7 -2 12 -10 12 -17 0
-8 10 -21 23 -31 15 -11 16 -15 5 -11 -28 10 -22 -1 28 -51 26 -25 48 -53 49
-61 1 -9 8 -15 15 -13 6 1 9 -2 5 -8 -7 -12 16 -70 27 -70 5 0 7 -3 7 -8 -4
-22 2 -42 11 -37 5 3 11 1 11 -4 1 -6 2 -17 3 -23 0 -7 6 -13 13 -13 6 0 15
-3 19 -8 4 -4 15 -7 23 -7 13 0 17 -11 17 -47 1 -26 7 -49 13 -51 6 -2 8 -9 5
-14 -4 -6 -3 -8 3 -5 12 7 44 -28 35 -39 -4 -5 1 -2 10 5 15 11 17 10 13 -8
-2 -12 1 -21 6 -21 5 0 21 -11 35 -25 14 -14 30 -23 35 -20 5 4 9 2 9 -3 0 -6
10 -10 23 -10 57 -2 76 -5 71 -14 -4 -6 2 -8 14 -4 11 4 23 3 26 -2 3 -5 23
-6 45 -2 31 6 41 3 52 -11 7 -10 17 -15 23 -12 6 3 5 0 -2 -8 -15 -17 -16 -33
0 -23 8 5 9 2 5 -9 -3 -10 -3 -17 2 -17 11 0 8 -43 -4 -56 -5 -7 -14 -9 -19
-6 -5 3 -7 -2 -3 -11 5 -12 1 -17 -13 -17 -11 0 -20 -4 -20 -10 0 -6 418 -10
1195 -10 l1195 0 0 236 0 236 -26 -5 c-14 -2 -31 1 -37 7 -14 13 -27 14 -44 3
-9 -6 -11 -3 -6 9 5 13 3 16 -10 11 -9 -3 -17 -2 -17 3 0 5 -7 7 -15 4 -8 -4
-15 -1 -15 6 0 6 -5 8 -10 5 -5 -3 -10 -2 -10 4 0 10 -19 9 -38 -3 -8 -5 -11
-3 -10 5 2 7 -8 14 -22 15 -14 1 -38 8 -55 15 -16 7 -38 13 -49 15 -10 1 -21
5 -25 10 -10 15 -34 16 -42 2 -5 -7 -9 -8 -9 -3 0 6 -23 11 -52 13 -28 1 -55
7 -58 12 -4 6 -19 9 -33 6 -15 -2 -29 0 -33 5 -3 6 -13 8 -21 5 -8 -3 -12 -2
-8 3 3 5 0 11 -7 13 -15 5 -18 48 -4 48 8 0 8 2 0 8 -6 4 -11 18 -11 32 -1 61
-3 71 -15 64 -9 -5 -9 -2 1 9 10 13 10 17 1 17 -8 0 -10 8 -7 21 4 14 -4 30
-28 54 -18 19 -30 37 -27 40 3 3 -4 5 -16 5 -12 0 -21 3 -20 7 2 13 -15 48
-28 56 -7 4 -10 15 -7 24 4 11 3 14 -6 9 -9 -6 -9 -3 1 13 7 12 17 21 23 21 5
0 3 5 -5 10 -13 9 -13 10 0 10 12 0 15 12 14 53 -1 28 -2 57 -4 62 -1 6 -2 14
-1 18 1 5 -3 6 -9 2 -5 -3 -10 1 -10 10 0 10 -13 29 -30 45 -16 15 -26 30 -23
34 3 3 -4 6 -16 6 -24 0 -54 23 -44 34 4 3 -1 6 -11 6 -9 0 -15 4 -11 9 3 5
-1 16 -9 24 -13 13 -20 37 -17 63 0 6 12 12 26 12 30 0 78 29 70 42 -4 6 -2
10 4 10 11 0 9 19 -3 39 -6 10 -5 12 2 7 11 -6 15 5 11 31 0 3 6 10 15 15 9 5
14 13 11 19 -3 5 1 6 10 3 9 -4 15 -2 13 3 -2 6 8 20 22 32 14 13 18 20 10 16
-11 -5 -11 -3 2 7 12 11 14 18 6 32 -8 14 -7 17 1 12 6 -4 11 -2 11 3 0 22 2
26 16 34 8 5 12 12 9 18 -4 5 2 6 12 2 16 -6 16 -5 4 10 -12 15 -12 17 4 11
12 -5 16 -4 11 4 -6 11 38 63 48 56 3 -2 4 -1 2 2 -3 3 1 26 9 50 7 24 9 46 5
49 -11 7 -8 22 18 77 25 54 27 68 10 69 -7 0 -4 4 7 9 11 5 14 9 6 9 -8 1 -11
8 -8 20 2 10 0 27 -6 37 -11 20 -17 75 -8 70 3 -2 12 2 19 10 7 8 8 14 2 14
-11 0 -9 28 4 49 7 11 6 12 -5 6 -11 -7 -12 -6 -2 7 7 8 10 18 6 22 -4 4 1 4
11 0 13 -5 17 -4 12 4 -3 6 1 15 9 20 11 6 17 25 19 59 1 27 6 55 11 63 5 9 4
11 -3 6 -8 -5 -12 2 -12 20 0 34 -26 65 -48 57 -10 -4 -13 -2 -8 5 4 7 4 12
-1 12 -4 0 -8 11 -8 24 0 13 4 22 9 18 5 -3 6 2 3 12 -4 9 -3 15 2 12 12 -8
32 18 34 43 1 12 4 21 8 21 10 0 17 73 8 85 -7 10 -9 16 -9 35 0 5 -6 9 -12 7
-7 -1 -12 3 -11 9 1 6 -16 21 -39 34 -25 14 -38 17 -33 9 8 -12 6 -12 -8 0 -9
7 -24 11 -32 7 -8 -3 -15 -1 -15 5 0 6 -8 8 -17 5 -10 -4 -15 -4 -11 -1 9 9
-33 56 -43 49 -5 -3 -6 2 -3 10 4 11 0 16 -12 16 -14 0 -15 3 -6 8 9 6 6 14
-13 30 -14 12 -30 22 -36 22 -5 0 -7 5 -4 10 3 6 -2 10 -13 10 -11 0 -32 10
-48 22 -16 13 -25 16 -20 8 4 -8 1 -7 -7 3 -9 11 -21 15 -32 10 -14 -5 -16 -3
-10 7 6 10 4 12 -7 8 -17 -7 -50 25 -59 57 -3 11 -12 19 -19 17 -11 -2 -11 0
-1 11 9 12 9 18 -3 30 -8 8 -12 17 -9 21 4 3 1 6 -7 6 -10 0 -10 3 0 15 11 13
10 14 -4 9 -12 -4 -16 -1 -16 14 0 12 -10 28 -22 36 -15 11 -18 16 -8 16 9 0
11 3 5 8 -5 4 -11 23 -13 42 -1 20 -11 42 -22 52 -11 9 -20 21 -20 27 0 6 -7
7 -17 4 -9 -4 -14 -2 -11 3 3 5 0 15 -8 21 -9 9 -15 9 -19 2 -5 -7 -14 -4 -26
7 -10 9 -19 12 -19 6z"/>
</g>
</svg>
